<mxfile host="app.diagrams.net" modified="2023-05-30T10:39:00.582Z" agent="Mozilla/5.0 (Macintosh; Intel Mac OS X 10_15_7) AppleWebKit/537.36 (KHTML, like Gecko) Chrome/113.0.0.0 Safari/537.36" version="21.3.3" etag="L_vcjgnWJA1XO36MBoAt" type="github">
  <diagram name="第 1 页" id="cd5Oy-AdQiKuPhprU3eT">
    <mxGraphModel>
      <root>
        <mxCell id="0" />
        <mxCell id="1" parent="0" />
      </root>
    </mxGraphModel>
  </diagram>
</mxfile>
